<?xml version="1.0" encoding="UTF-8" standalone="no"?>
<!-- Created with Inkscape (http://www.inkscape.org/) -->

<svg
  width="130"
  height="130"
  viewBox="0 0 130 130"
  version="1.1"
  id="svg5"
  xml:space="preserve"
  xmlns="http://www.w3.org/2000/svg"
  xmlns:svg="http://www.w3.org/2000/svg"><defs
     id="defs2" /><g
     id="layer1"
     transform="translate(-241.46439,-103)"><rect
       style="fill:none;fill-opacity:1;stroke-width:100;stroke-linecap:round;paint-order:markers stroke fill"
       id="rect715"
       width="130"
       height="130"
       x="241.46439"
       y="103"
       ry="65" /><path
       style="fill:#ffffff;stroke-width:0.636805"
       d="m 306.4644,202.99999 h -7.55073 l -1.0007,-1.00065 -1.0007,-1.00081 v -1.18254 -1.18274 l -1.0007,-1.00063 -1.0007,-1.00069 h -4.04169 -4.04166 l -1.00044,-0.38396 -1.00037,-0.38383 -0.66303,-2.46241 -0.66303,-2.46241 -2.4624,-0.66302 -2.46241,-0.66311 -0.38397,-1.00044 -0.38388,-1.00033 v -4.04169 -4.04168 l -1.00063,-1.00066 -1.00077,-1.0008 h -1.1826 -1.1827 l -1.00067,-1.00063 -1.00063,-1.00069 v -7.22575 -7.22573 l 0.38382,-1.00038 0.38383,-1.00038 2.46242,-0.66307 2.46243,-0.66306 0.6755,-2.50855 0.67553,-2.50856 2.46241,-0.66307 2.46241,-0.66306 0.38384,-1.00037 0.38393,-1.00039 v -4.04169 -4.04168 l 1.0007,-1.0007 1.00067,-1.0007 h 1.18268 1.18261 l 1.00072,1.0007 1.00069,1.0007 v 4.36668 4.36669 l 1.0007,1.0007 1.0007,1.0007 h 1.18265 1.18264 l 1.0007,-1.0007 1.0007,-1.0007 v -4.04169 -4.04168 l 0.38388,-1.00038 0.38388,-1.00038 2.46242,-0.66307 2.46242,-0.66306 0.67035,-2.48948 0.67035,-2.48949 1.25941,-0.39973 1.25942,-0.39972 1.25941,0.39972 1.25941,0.39973 0.67035,2.48949 0.67036,2.48948 2.46241,0.66306 2.46242,0.66307 0.38389,1.00038 0.38388,1.00038 v 4.04168 4.04169 l 1.0007,1.0007 1.0007,1.0007 h 1.18264 1.18264 l 1.0007,-1.0007 1.0007,-1.0007 v -4.36669 -4.36668 l 1.0007,-1.0007 1.0007,-1.0007 h 1.18265 1.18264 l 1.0007,1.0007 1.0007,1.0007 v 4.04169 4.04168 l 0.38388,1.00039 0.38389,1.00037 2.46241,0.66306 2.46242,0.66307 0.67549,2.50856 0.67548,2.50855 2.46242,0.66306 2.46242,0.66307 0.38388,1.00038 0.38388,1.00038 v 7.22573 7.22575 l -1.0007,1.00069 -1.0007,1.00063 h -1.18264 -1.18264 l -1.0007,1.0008 -1.0007,1.00066 v 4.04168 4.04169 l -0.38389,1.00033 -0.38388,1.00044 -2.46242,0.66311 -2.46242,0.66302 -0.66306,2.46241 -0.66306,2.46241 -1.00038,0.38383 -1.00038,0.38396 h -4.04169 -4.04168 l -1.0007,1.00069 -1.0007,1.00063 v 1.18274 1.18254 l -1.0007,1.00081 -1.0007,1.00065 z m 0,-6.36806 h 7.55073 l 1.0007,-1.00077 1.0007,-1.00063 v -1.18272 -1.18256 l 1.0007,-1.00074 1.0007,-1.00072 h 4.36668 4.36669 l 1.0007,-1.00063 1.0007,-1.00077 v -4.3666 -4.36674 l -1.0007,-1.00066 -1.0007,-1.0008 h -1.18264 -1.18265 l -1.0007,1.0008 -1.0007,1.00066 v 1.18263 1.18265 l -1.0007,1.00065 -1.0007,1.00081 h -4.04168 -4.04169 l -1.00038,0.38382 -1.00038,0.38383 -0.65793,2.44346 -0.65793,2.44327 -1.25941,0.3997 -1.25941,0.39974 -1.25942,-0.39974 -1.25941,-0.3997 -0.65793,-2.44327 -0.65792,-2.44346 -1.00038,-0.38383 -1.00039,-0.38382 h -4.04168 -4.04169 l -1.0007,-1.00081 -1.0007,-1.00065 v -1.18265 -1.18263 l -1.00069,-1.00066 -1.00072,-1.0008 h -1.18261 -1.18268 l -1.00067,1.0008 -1.0007,1.00066 v 4.36674 4.3666 l 1.0007,1.00077 1.00067,1.00063 h 4.3667 4.36669 l 1.0007,1.00072 1.0007,1.00074 v 1.18256 1.18272 l 1.0007,1.00063 1.0007,1.00077 z m 0,-12.73614 h 1.18264 l 1.0007,-1.00081 1.0007,-1.00065 v -7.55074 -7.55072 l 1.0007,-1.00069 1.0007,-1.00071 h 1.18264 1.18265 l 1.0007,-1.00069 1.0007,-1.0007 v -4.36669 -4.36669 l -1.0007,-1.0007 -1.0007,-1.0007 h -1.18265 -1.18264 l -1.0007,-1.0007 -1.0007,-1.0007 v -4.36669 -4.36668 l -1.0007,-1.0007 -1.0007,-1.0007 h -1.18264 -1.18265 l -1.00069,1.0007 -1.00071,1.0007 v 4.36668 4.36669 l -1.00069,1.0007 -1.0007,1.0007 h -1.18265 -1.18264 l -1.0007,1.0007 -1.0007,1.0007 v 4.36669 4.36669 l 1.0007,1.0007 1.0007,1.00069 h 1.18264 1.18265 l 1.0007,1.00071 1.00069,1.00069 v 7.55072 7.55074 l 1.00071,1.00065 1.00069,1.00081 z m -25.4724,-6.3682 h 1.18273 l 1.00064,-1.00063 1.00074,-1.00069 v -1.18268 -1.18262 l -1.0223,-1.02231 -1.02236,-1.02233 -1.36563,0.41158 -1.36583,0.41163 -0.40601,0.40603 -0.406,0.40602 -0.41154,1.36567 -0.41169,1.36579 1.02232,1.0223 1.02238,1.02224 z m 13.05463,-0.43933 1.27362,-0.32602 0.79601,-1.01259 0.79601,-1.01272 v -3.972 -3.97206 l -1.0007,-1.00069 -1.0007,-1.00071 h -1.18264 -1.18265 l -1.0007,-1.00069 -1.0007,-1.0007 v -4.36669 -4.36669 l -1.00069,-1.0007 -1.00072,-1.0007 h -0.85762 -0.85763 l -1.00044,0.38389 -1.00037,0.38388 -0.66303,2.46242 -0.66303,2.46241 -2.4624,0.66306 -2.46241,0.66307 -0.36608,0.95383 -0.36607,0.95382 0.57953,1.52408 0.57941,1.52407 2.25596,0.74454 2.25603,0.74453 0.66851,2.4826 0.66841,2.48258 2.50862,0.67548 2.50854,0.67551 0.66742,2.47857 0.66741,2.47856 0.78474,0.31105 0.78474,0.31105 z m 25.57946,0.38916 0.10712,0.0506 1.00039,-0.38389 1.00038,-0.38386 0.66306,-2.46242 0.66306,-2.46243 2.50856,-0.6755 2.50856,-0.67549 0.66849,-2.48258 0.66849,-2.48259 2.25598,-0.74454 2.25598,-0.74454 0.57945,-1.52407 0.57945,-1.52407 -0.36602,-0.95383 -0.36602,-0.95383 -2.46242,-0.66306 -2.46242,-0.66306 -0.66306,-2.46242 -0.66306,-2.46242 -1.00038,-0.38388 -1.00038,-0.38388 h -0.85764 -0.85765 l -1.0007,1.0007 -1.0007,1.0007 v 4.36668 4.36669 l -1.0007,1.0007 -1.0007,1.0007 h -1.18264 -1.18264 l -1.0007,1.0007 -1.0007,1.0007 v 3.97205 3.97206 l 0.79601,1.00365 0.79601,1.00366 0.95521,0.34143 0.95521,0.34135 z m 12.31065,0.0506 h 1.18265 l 1.02231,-1.02228 1.02232,-1.02233 -0.4116,-1.36572 -0.41159,-1.36573 -0.40603,-0.40602 -0.40603,-0.40603 -1.36572,-0.41161 -1.36572,-0.41158 -1.02231,1.02231 -1.02232,1.02234 v 1.1826 1.18268 l 1.0007,1.00068 1.0007,1.00069 z"
       id="path719" /></g></svg>
