<?xml version="1.0" encoding="UTF-8" standalone="no"?>
<!-- Created with Inkscape (http://www.inkscape.org/) -->

<svg
   width="130"
   height="130"
   viewBox="0 0 130 130"
   version="1.1"
   id="svg5"
   xml:space="preserve"
   xmlns="http://www.w3.org/2000/svg"
   xmlns:svg="http://www.w3.org/2000/svg"><defs
     id="defs2" /><g
     id="layer1"
     transform="translate(-120,-310)"><rect
       style="fill:none;stroke-width:100;stroke-linecap:round;paint-order:markers stroke fill"
       id="rect719"
       width="130"
       height="130"
       x="120"
       y="310"
       ry="65" /><path
       style="fill:#f9f9f9;stroke-width:0.63636"
       d="m 185,410 h -7.54547 l -0.99995,-1.00003 -0.99998,-1.00003 v -1.18174 -1.18182 l -1.00003,-0.99995 -1.00003,-1.00003 h -4.03882 -4.03895 l -0.99965,-0.38362 -0.99961,-0.38363 -0.66262,-2.46072 -0.66262,-2.4607 -2.46069,-0.66262 -2.46073,-0.66262 -0.38363,-0.99962 -0.38362,-0.99964 v -4.03896 -4.03881 l -1.00002,-1.00003 -0.99995,-1.00003 h -1.18183 -1.18174 L 151.00003,383.54543 150,382.54547 V 375 367.45453 l 1.00003,-0.99995 1.00003,-0.99998 h 1.18174 1.18183 l 0.99994,-1.00003 1.00003,-1.00003 v -4.03881 -4.03896 l 0.38362,-0.99964 0.38363,-0.99962 2.46072,-0.66262 2.4607,-0.66262 0.66262,-2.4607 0.66262,-2.46072 0.99961,-0.38363 0.99965,-0.38362 h 4.03895 4.03882 l 1.00003,-1.00002 1.00003,-0.99995 v -1.18183 -1.18174 l 0.99997,-1.00003 L 177.45453,340 H 185 h 7.54547 l 0.99995,1.00003 0.99998,1.00003 v 1.18174 1.18183 l 1.00003,0.99995 1.00003,1.00002 h 4.03881 4.03896 l 0.99964,0.38362 0.99962,0.38363 0.66262,2.46072 0.66262,2.4607 2.46069,0.66262 2.46073,0.66262 0.38363,0.99962 0.38362,0.99964 v 4.03896 4.03881 l 1.00002,1.00003 0.99995,1.00003 h 1.18183 1.18174 l 1.00003,0.99998 L 220,367.45453 V 375 v 7.54547 l -1.00003,0.99996 -1.00003,0.99997 h -1.18174 -1.18183 l -0.99995,1.00003 -1.00002,1.00003 v 4.03881 4.03896 l -0.38362,0.99964 -0.38363,0.99962 -2.46073,0.66262 -2.46069,0.66262 -0.66262,2.4607 -0.66262,2.46072 -0.99962,0.38363 -0.99964,0.38362 h -4.03896 -4.03881 l -1.00003,1.00003 -1.00003,0.99995 v 1.18182 1.18174 l -0.99998,1.00003 L 192.54547,410 Z m 0,-6.3636 h 7.54547 l 0.99995,-1.00003 0.99998,-1.00003 v -1.18174 -1.18192 l -0.99998,-0.99995 -0.99995,-0.99995 h -1.18187 -1.18174 l -1.00003,-1.00001 -1.00003,-1.00003 v -4.03886 -4.03891 l 0.38362,-0.99969 0.38363,-0.9996 2.46067,-0.66259 2.46075,-0.66262 0.66262,-2.46074 0.66258,-2.46068 0.9996,-0.38363 0.9997,-0.38362 h 4.0389 4.03887 l 1.00003,1.00003 1,1.00003 v 1.18174 1.18188 l 0.99995,0.99995 0.99995,0.99997 h 1.18193 1.18174 l 1.00003,-0.99997 1.00003,-0.99995 V 375 367.45453 l -1.00003,-0.99995 -1.00003,-0.99998 h -1.18174 -1.18193 l -0.99995,0.99998 -0.99995,0.99995 v 1.18187 1.18174 l -1,1.00003 -1.00003,1.00003 h -4.03887 -4.0389 l -0.9997,-0.38362 -0.9996,-0.38363 -0.66258,-2.46068 -0.66262,-2.46074 -2.46075,-0.66262 -2.46067,-0.66259 -0.38363,-0.9996 -0.38362,-0.99969 v -4.0389 -4.03887 l 1.00003,-1.00003 1.00003,-1 h 1.18174 1.18187 l 0.99995,-0.99995 0.99998,-0.99996 v -1.18192 -1.18174 l -0.99998,-1.00003 -0.99995,-1.00003 H 185 177.45453 l -0.99995,1.00003 -0.99998,1.00003 v 1.18174 1.18192 l 0.99998,0.99996 0.99995,0.99995 h 1.18187 1.18174 l 1.00003,1 1.00003,1.00003 v 4.03887 4.0389 l -0.38362,0.99969 -0.38363,0.9996 -2.46067,0.66259 -2.46075,0.66262 -0.66262,2.46074 -0.66258,2.46068 -0.9996,0.38363 -0.9997,0.38362 h -4.0389 -4.03887 l -1.00003,-1.00003 -1,-1.00003 v -1.18174 -1.18187 l -0.99995,-0.99995 -0.99995,-0.99998 h -1.18193 -1.18174 l -1.00003,0.99998 -1.00003,0.99995 V 375 v 7.54547 l 1.00003,0.99996 1.00003,0.99997 h 1.18174 1.18193 l 0.99995,-0.99997 0.99995,-0.99996 v -1.18187 -1.18174 l 1,-1.00003 1.00003,-1.00003 h 4.03887 4.0389 l 0.9997,0.38362 0.9996,0.38363 0.66258,2.46068 0.66262,2.46074 2.46075,0.66262 2.46067,0.66259 0.38363,0.9996 0.38362,0.99969 v 4.0389 4.03887 l -1.00003,1.00003 -1.00003,1 h -1.18174 -1.18187 l -0.99995,0.99995 -0.99998,0.99996 v 1.18192 1.18174 l 0.99998,1.00003 0.99995,1.00003 z m 0,-25.4546 h -1.18178 l -0.99999,-1.00003 -1.00003,-0.99999 V 375 373.81823 l 1.00003,-1 0.99999,-1.00003 H 185 h 1.18177 l 1,1.00003 1.00003,1 V 375 v 1.18178 l -1.00003,0.99999 -1,1.00003 z m -15.90908,19.09098 h 4.36362 l 1.00003,-1.00001 1.00003,-1.00003 v -4.36366 -4.36362 l -1.00003,-1.00003 -1.00003,-1.00003 h -4.36362 -4.36366 l -1.00003,1.00003 -1.00001,1.00003 v 4.36362 4.36366 l 1.00001,1.00003 1.00003,1.00001 z m 31.81815,0 h 4.36367 l 1.00003,-1.00001 1,-1.00003 v -4.36366 -4.36362 l -1,-1.00003 -1.00003,-1.00003 h -4.36367 -4.36361 l -1.00003,1.00003 -1.00003,1.00003 v 4.36362 4.36366 l 1.00003,1.00003 1.00003,1.00001 z M 169.09092,365.4546 h 4.36362 l 1.00003,-1.00003 1.00003,-1.00003 v -4.36361 -4.36367 l -1.00003,-1.00003 -1.00003,-1 h -4.36362 -4.36366 l -1.00003,1 -1.00001,1.00003 v 4.36367 4.36361 l 1.00001,1.00003 1.00003,1.00003 z m 31.81815,0 h 4.36367 l 1.00003,-1.00003 1,-1.00003 v -4.36361 -4.36367 l -1,-1.00003 -1.00003,-1 h -4.36367 -4.36361 l -1.00003,1 -1.00003,1.00003 v 4.36367 4.36361 l 1.00003,1.00003 1.00003,1.00003 z"
       id="path723" /></g></svg>
