<?xml version="1.0" encoding="UTF-8" standalone="no"?>
<!-- Created with Inkscape (http://www.inkscape.org/) -->

<svg
   width="130"
   height="130"
   viewBox="0 0 130 130"
   version="1.1"
   id="svg5"
   xml:space="preserve"
   xmlns="http://www.w3.org/2000/svg"
   xmlns:svg="http://www.w3.org/2000/svg"><defs
     id="defs2" /><g
     id="layer1"
     transform="translate(-120,-30)"><rect
       style="fill:none;fill-opacity:1;stroke-width:100;stroke-linecap:round;paint-order:markers stroke fill"
       id="rect717"
       width="130"
       height="130"
       x="120"
       y="30"
       ry="65" /><path
       style="fill:#ffffff;stroke-width:0.63636"
       d="m 185,130 h -7.54547 l -0.99995,-1.00003 -0.99998,-1.00003 v -1.18174 -1.18183 l -1.00003,-0.99995 -1.00003,-1.00002 h -4.03882 -4.03895 l -0.99965,-0.38362 -0.99961,-0.38363 -0.66262,-2.46073 -0.66262,-2.46069 -2.46069,-0.66262 -2.46073,-0.66262 -0.38363,-0.99962 -0.38362,-0.99964 v -4.03896 -4.03881 l -1.00002,-1.00003 -0.99995,-1.00003 h -1.18183 -1.18174 L 151.00003,103.54542 150,102.54547 V 95 87.454542 l 1.00003,-0.999993 1.00003,-1.000009 h 1.18174 1.18183 l 0.99994,-0.999989 1.00003,-1.000008 v -4.363636 -4.36363 l 1.00003,-1.000008 1.00003,-0.999991 h 1.18174 1.18192 l 0.99995,0.999991 0.99995,1.000008 v 4.36363 4.363636 l 1.00001,1.000008 1.00003,0.999989 h 1.18181 1.18187 l 1.00003,1.000009 0.99995,0.999993 v 4.038861 4.038862 l 0.3836,0.999691 0.38361,0.999682 2.46073,0.662592 2.46062,0.662595 0.66261,2.460715 0.66262,2.46064 0.99973,0.3836 0.99968,0.38362 h 0.85704 0.85698 l 1.00003,-0.99997 1.00003,-0.99995 V 95 87.454542 l -1.00003,-0.999993 -1.00003,-1.000009 h -1.18174 -1.18187 l -0.99995,-0.999989 -0.99998,-1.000008 v -4.038864 -4.038864 l -0.38362,-0.999672 -0.38363,-0.999689 -2.44166,-0.657462 -2.44167,-0.657469 -0.39949,-1.25853 -0.39935,-1.258533 0.39935,-1.258535 0.39949,-1.258536 2.48772,-0.669886 2.48774,-0.669877 0.66261,-2.460698 0.66262,-2.460703 0.99973,-0.383607 L 178.10412,60 H 185 h 6.89587 l 0.99969,0.383617 0.99973,0.383608 0.66262,2.460702 0.66261,2.460699 2.48774,0.669876 2.48772,0.669887 0.39949,1.258536 0.39935,1.258535 -0.39935,1.258532 -0.39949,1.25853 -2.44167,0.65747 -2.44166,0.657462 -0.38363,0.999688 -0.38362,0.999673 v 4.038864 4.038864 l -0.99998,1.000008 -0.99995,0.999989 h -1.18187 -1.18174 l -1.00003,1.000009 -1.00003,0.999993 V 95 v 7.54547 l 1.00003,0.99995 1.00003,0.99998 h 0.85698 0.85704 l 0.99968,-0.38362 0.99973,-0.38361 0.66262,-2.46063 0.66261,-2.460715 2.46062,-0.662595 2.46073,-0.662593 0.3836,-0.999681 0.38361,-0.999691 v -4.038863 -4.03886 l 0.99995,-0.999993 1.00003,-1.000009 h 1.18187 1.18181 l 1.00003,-0.999989 1.00001,-1.000008 v -4.363636 -4.36363 l 0.99994,-1.000008 0.99995,-0.999992 h 1.18193 1.18174 l 1.00003,0.999992 1.00003,1.000008 v 4.36363 4.363636 l 1.00003,1.000008 0.99995,0.999989 h 1.18182 1.18174 l 1.00003,1.000009 L 220,87.454542 V 95 v 7.54547 l -1.00003,0.99995 -1.00003,0.99998 h -1.18174 -1.18183 l -0.99995,1.00003 -1.00002,1.00003 v 4.03881 4.03896 l -0.38362,0.99964 -0.38363,0.99962 -2.46072,0.66262 -2.4607,0.66262 -0.66262,2.4607 -0.66262,2.46072 -0.99961,0.38363 -0.99965,0.38362 h -4.03895 -4.03882 l -1.00003,1.00003 -1.00003,0.99995 v 1.18182 1.18174 l -0.99997,1.00003 L 192.54548,130 Z m 0,-6.3636 h 7.54547 l 1.03661,-1.03663 1.03654,-1.03665 -0.35471,-0.92445 -0.35484,-0.92464 v -0.61671 -0.61677 l -2.3863,-0.99358 -2.38637,-0.99365 -0.46753,-0.72391 -0.4676,-0.72401 -0.01,-4.24997 -0.01,-4.24997 -1,-1.00003 -1.00002,-1.00003 H 185 183.81822 l -0.99999,1.00003 -1.00003,1.00003 -0.01,4.24997 -0.01,4.24997 -0.46753,0.72401 -0.46752,0.72391 -2.38637,0.99365 -2.38637,0.99358 v 0.61677 0.61671 l -0.35477,0.92464 -0.35477,0.92445 1.03659,1.03665 1.03659,1.03663 z m -20.04147,-6.36363 h 0.23129 l 1.57006,-0.59695 1.56988,-0.5969 0.73593,-2.22959 0.73574,-2.22971 2.2297,-0.73575 2.22965,-0.73591 0.57899,-1.52299 0.57913,-1.523 -0.36578,-0.95323 -0.36577,-0.95307 -2.46077,-0.66258 -2.46065,-0.66262 -0.675,-2.50687 -0.67506,-2.506775 -2.46061,-0.662595 -2.46081,-0.662593 -0.38362,-0.999681 -0.38361,-0.999691 v -4.038863 -4.03886 l -0.99994,-0.999993 -0.99995,-1.000009 h -1.18193 -1.18174 l -1.00003,1.000009 -1.00003,0.999993 V 95 v 7.54547 l 1.00003,0.99995 1.00003,0.99998 h 1.18174 1.18193 l 0.99995,1.00003 0.99994,1.00003 v 4.36361 4.36367 l 1.00001,1.00003 1.00003,1 z m 39.88244,-0.0401 0.43177,0.0401 1.00003,-1 1,-1.00003 v -4.36367 -4.36361 l 0.99995,-1.00003 0.99995,-1.00003 h 1.18193 1.18174 l 1.00003,-0.99998 1.00003,-0.99995 V 95 87.454542 l -1.00003,-0.999993 -1.00003,-1.000009 h -1.18174 -1.18193 l -0.99995,1.000009 -0.99995,0.999993 v 4.038861 4.038862 l -0.3836,0.999691 -0.38362,0.999682 -2.46081,0.662592 -2.46061,0.662595 -0.67506,2.506775 -0.675,2.50687 -2.46065,0.66262 -2.46077,0.66259 -0.36577,0.95306 -0.36578,0.95323 0.57913,1.52301 0.57899,1.52298 2.22965,0.73592 2.2297,0.73574 0.73737,2.23436 0.73736,2.23439 1.36795,0.55183 1.36782,0.55183 z M 185,85.45454 h 1.18177 l 1,-0.999989 1.00003,-1.000008 v -4.363635 -4.363631 l 1.00003,-1.000008 1.00003,-0.999991 h 1.18174 1.18188 l 0.99995,-1.000007 0.99997,-0.999998 V 69.54546 68.363637 l -0.99997,-1.000004 -0.99995,-0.999993 H 185 177.45453 l -0.99995,0.999993 -0.99998,1.000004 v 1.181823 1.181813 l 0.99998,0.999998 0.99995,1.000007 h 1.18187 1.18174 l 1.00003,0.999991 1.00003,1.000008 v 4.363631 4.363635 l 1.00003,1.000008 1,0.999989 z"
       id="path722" /></g></svg>
