<?xml version="1.0" encoding="UTF-8" standalone="no"?>
<!-- Created with Inkscape (http://www.inkscape.org/) -->

<svg
   width="130"
   height="130"
   viewBox="0 0 130 130"
   version="1.1"
   id="svg5"
   xml:space="preserve"
   xmlns="http://www.w3.org/2000/svg"
   xmlns:svg="http://www.w3.org/2000/svg"><defs
     id="defs2" /><g
     id="layer1"
     transform="translate(-120,-170)"><rect
       style="fill:none;fill-opacity:1;stroke-width:100;stroke-linecap:round;paint-order:markers stroke fill"
       id="rect718"
       width="130"
       height="130"
       x="120"
       y="170"
       ry="65" /><path
       style="fill:#ffffff;fill-opacity:1;stroke-width:0.63636"
       d="m 185,270 h -7.54547 l -0.99995,-1.00003 -0.99998,-1.00003 v -1.18174 -1.18183 l -1.00003,-0.99995 -1.00003,-1.00002 -4.24997,-0.01 -4.24997,-0.01 -0.72401,-0.46751 -0.72391,-0.46754 -0.96451,-2.31669 -0.96442,-2.31668 -2.23258,-0.73683 -2.23264,-0.73682 -0.3745,-0.97581 -0.37443,-0.97582 v -4.03887 -4.03886 l -1.00002,-1 -0.99995,-1 h -1.18183 -1.18174 L 151.00003,243.54501 150,242.54547 V 235 227.45453 l 1.00003,-0.99996 1.00003,-0.99997 h 1.18174 1.18183 l 0.99994,-1.00003 1.00003,-1.00003 v -4.03882 -4.03895 l 0.38362,-0.99965 0.38363,-0.99961 2.46072,-0.66262 2.4607,-0.66262 0.66262,-2.46069 0.66262,-2.46073 0.99961,-0.38363 0.99965,-0.38362 h 4.03895 4.03882 l 1.00003,-1.00002 1.00003,-0.99995 v -1.18183 -1.18174 l 0.99997,-1.00003 L 177.45452,200 h 4.36368 4.36357 l 1,1.00003 1.00003,1.00003 v 1.18174 1.18183 l -1.00003,0.99995 -1,1.00002 h -4.36357 -4.36368 l -0.99995,1.00003 -0.99997,1.00003 v 0.85698 0.85709 l 0.38362,0.99963 0.3836,0.99973 2.4416,0.65749 2.4416,0.65743 0.39946,1.25849 0.3995,1.25858 -0.39366,1.24017 -0.39362,1.24025 -1.24018,0.39354 -1.24012,0.39364 -1.25853,-0.3994 -1.2586,-0.3995 -0.65742,-2.44167 -0.65753,-2.44166 -0.9996,-0.38362 -0.99969,-0.3836 h -4.03891 -4.03886 l -1.00003,1 -1.00001,1.00003 v 0.23127 0.2313 l 0.59696,1.57005 0.59689,1.56988 2.25435,0.74402 2.25441,0.7441 0.66809,2.4808 0.66801,2.4808 2.46064,0.66261 2.46078,0.66262 0.38363,0.99973 0.38362,0.99969 v 4.03883 4.03882 l 0.99997,0.99999 0.99995,1.00003 h 0.85712 0.85699 l 0.99973,-0.38362 0.99966,-0.38363 0.66255,-2.46061 0.66256,-2.46081 2.50687,-0.67493 2.50687,-0.67502 0.67493,-2.50678 0.67502,-2.50687 2.46072,-0.66262 2.46063,-0.66258 0.38361,-0.9996 0.38362,-0.9997 v -3.7141 -3.71416 l 0.38362,-0.99964 0.38363,-0.99962 2.46077,-0.66262 2.46065,-0.66262 0.66987,-2.48773 0.66987,-2.48772 1.25851,-0.3995 1.2586,-0.3995 1.25858,0.3995 1.25849,0.3995 0.66987,2.48772 0.66987,2.48773 2.48773,0.66987 2.48772,0.66987 0.3995,1.25849 0.3995,1.25858 -0.3995,1.2586 -0.3995,1.25851 -2.48772,0.66987 -2.48773,0.66987 -0.66262,2.46065 -0.66262,2.46077 -0.99962,0.38363 -0.99964,0.38362 h -3.71416 -3.7141 l -0.9997,0.38362 -0.9996,0.38361 -0.66258,2.46063 -0.66262,2.46072 -2.50687,0.67502 -2.50678,0.67493 -0.67502,2.50687 -0.67493,2.50687 -2.46081,0.66256 -2.46061,0.66255 -0.38363,0.99966 -0.38362,0.99973 v 0.85699 0.85712 l 1.00003,0.99995 0.99999,0.99997 h 4.03882 4.03883 l 0.99969,0.38362 0.99973,0.38363 0.66262,2.46078 0.66261,2.46064 2.4808,0.66801 2.4808,0.66809 0.7441,2.25441 0.74402,2.25435 1.56988,0.59689 1.57005,0.59696 h 0.2313 0.23127 l 1.00003,-1.00001 1,-1.00003 v -4.03886 -4.03891 l -0.3836,-0.99969 -0.38362,-0.9996 -2.44166,-0.65753 -2.44167,-0.65742 -0.3995,-1.2586 -0.3994,-1.25853 0.39364,-1.24012 0.39354,-1.24018 1.24025,-0.39362 1.24017,-0.39366 1.25858,0.3995 1.25849,0.39946 0.65743,2.4416 0.65749,2.4416 0.99973,0.3836 0.99963,0.38362 h 0.85709 0.85698 l 1.00003,-0.99997 1.00003,-0.99995 v -4.36368 -4.36357 l 1.00002,-1 0.99995,-1.00003 h 1.18183 1.18174 l 1.00003,1.00003 1.00003,1 v 4.36357 4.36368 l -1.00003,0.99995 -1.00003,0.99997 h -1.18174 -1.18183 l -0.99995,1.00003 -1.00002,1.00003 v 4.03882 4.03895 l -0.38362,0.99965 -0.38363,0.99961 -2.46073,0.66262 -2.46069,0.66262 -0.66262,2.4607 -0.66262,2.46072 -0.99962,0.38363 -0.99964,0.38362 h -4.03896 -4.03881 l -1.00003,1.00003 -1.00003,0.99995 v 1.18182 1.18174 l -0.99998,1.00003 L 192.54547,270 Z m 0,-6.3636 h 7.54547 l 0.99995,-1.00003 0.99998,-1.00003 v -4.36356 -4.36372 l -0.99998,-1.00003 -0.99995,-0.99995 h -4.03891 -4.03879 l -0.99973,0.3836 -0.99973,0.3836 -0.66259,2.46078 -0.66255,2.46061 -2.46071,0.66262 -2.46064,0.66262 -0.3836,0.99973 -0.38362,0.99964 v 0.85708 0.85698 l 0.99997,1.00003 0.99995,1.00003 z m -12.30199,-6.40399 0.10702,0.0402 0.99969,-0.3836 0.9996,-0.38362 0.66259,-2.46076 0.66262,-2.46066 2.48773,-0.66987 2.48776,-0.66987 0.39946,-1.25855 0.3995,-1.25857 -0.3995,-1.25855 -0.39946,-1.25851 -2.48776,-0.66987 -2.48773,-0.66987 -0.66987,-2.48773 -0.66987,-2.48776 -1.25849,-0.39946 -1.25853,-0.39949 -1.25859,0.39949 -1.25857,0.39946 -0.66987,2.48776 -0.66987,2.48773 -2.46061,0.66262 -2.46081,0.66259 -0.36577,0.95311 -0.36575,0.95318 0.5791,1.52302 0.57904,1.52297 2.2296,0.73591 2.22971,0.73577 0.73736,2.23436 0.73736,2.23436 1.36795,0.55184 1.36787,0.55184 z M 159.22064,244.5454 h 0.85709 l 0.99963,-0.38362 0.99973,-0.3836 0.66262,-2.46064 0.66262,-2.46071 2.46061,-0.66255 2.46078,-0.66259 0.38361,-0.99973 0.3836,-0.99973 v -4.03879 -4.03891 l -0.99996,-0.99995 -1.00003,-0.99998 h -4.36372 -4.36356 l -1.00003,0.99998 -1.00003,0.99995 V 235 v 7.54547 l 1.00003,0.99995 1.00003,0.99998 z m 45.62033,-25.49479 0.43177,0.0402 1.00003,-0.99999 1,-1.00004 v -1.1818 -1.18188 l -1,-0.99998 -1.00003,-0.99999 h -1.18182 -1.18186 l -1.03654,1.03665 -1.0366,1.03654 0.70948,3.05877 1.43182,0.57549 1.43185,0.57549 z"
       id="path721" /></g></svg>
