<?xml version="1.0" encoding="UTF-8" standalone="no"?>
<!-- Created with Inkscape (http://www.inkscape.org/) -->

<svg
   width="130"
   height="130"
   viewBox="0 0 130 130"
   version="1.1"
   id="svg5"
   xml:space="preserve"
   xmlns="http://www.w3.org/2000/svg"
   xmlns:svg="http://www.w3.org/2000/svg"><defs
     id="defs2" /><g
     id="layer1"
     transform="translate(-241.46439,-243)"><rect
       style="fill:none;fill-opacity:1;stroke-width:100;stroke-linecap:round;paint-order:markers stroke fill"
       id="rect716"
       width="130"
       height="130"
       x="241.46439"
       y="243"
       ry="65" /><path
       style="fill:#ffffff;stroke-width:0.63636"
       d="m 306.46439,342.99999 h -7.54546 l -0.99999,-1.00003 -1.00001,-1.00003 0.01,-1.06817 0.01,-1.06817 0.46753,-0.72387 0.46752,-0.72395 2.38637,-0.99356 2.38636,-0.99359 v -1.91922 -1.91923 l -1.23089,-0.6587 -1.23089,-0.6587 h -3.48979 -3.48979 l -0.99968,0.3836 -0.99968,0.3836 -0.65747,2.4416 -0.65746,2.4416 -1.25851,0.3995 -1.25855,0.3995 -1.24014,-0.3937 -1.24021,-0.39358 -0.39357,-1.24022 -0.39366,-1.24008 0.39944,-1.25857 0.39948,-1.2586 2.44164,-0.65738 2.4416,-0.65756 0.38362,-0.99961 0.38361,-0.99965 v -0.8571 -0.85707 l -0.99999,-1.00003 -0.99999,-0.99995 h -4.03886 -4.03886 l -0.99973,-0.3836 -0.9996,-0.3836 -0.66256,-2.46074 -0.66262,-2.46061 -2.46077,-0.66262 -2.46065,-0.66262 -0.38363,-0.99973 -0.38356,-0.99969 v -7.22063 -7.22072 l 1.00003,-0.99995 1.00003,-0.99997 h 1.18174 1.18182 l 0.99995,-1.00003 1.00003,-1.00003 v -4.03882 -4.03895 l 0.38362,-0.99965 0.38363,-0.99961 2.46073,-0.66262 2.46069,-0.66262 0.66261,-2.4607 0.66261,-2.46072 0.99963,-0.38363 0.99968,-0.38362 h 4.03887 4.03886 l 1.00001,-1.00002 1,-0.99995 v -1.18183 -1.18174 l 1,-1.00003 1,-1.00003 h 7.54546 7.54546 l 0.99999,1.00003 1.00001,1.00003 v 1.18174 1.18183 l 0.99999,0.99994 1.00001,1.00003 h 4.03886 4.03886 l 0.99968,0.38362 0.99969,0.38363 0.6626,2.46072 0.66258,2.4607 2.46071,0.66262 2.46069,0.66262 0.38362,0.99961 0.38361,0.99965 v 4.03895 4.03882 l 1.00001,1.00003 0.99999,1.00003 h 1.18182 1.18182 l 1,0.99997 1,0.99996 v 7.22071 7.22064 l -0.38362,0.99968 -0.38361,0.99973 -2.4607,0.66262 -2.4607,0.66261 -0.66259,2.46062 -0.66259,2.46073 -0.99969,0.3836 -0.99968,0.38361 h -4.03886 -4.03886 l -1.00001,0.99995 -1,1.00003 v 0.85707 0.8571 l 0.38361,0.99965 0.38362,0.99961 2.44164,0.65756 2.44164,0.65737 0.39945,1.2586 0.39944,1.25858 -0.39362,1.24007 -0.39362,1.24023 -1.24016,0.39357 -1.24018,0.39371 -1.25853,-0.3995 -1.25853,-0.3995 -0.65748,-2.44161 -0.65746,-2.4416 -0.99968,-0.3836 -0.99969,-0.3836 h -3.48979 -3.48979 l -1.23088,0.6587 -1.2309,0.6587 v 1.91924 1.91921 l 2.38636,0.9936 2.38637,0.99356 0.46753,0.72394 0.46753,0.72388 0.01,1.06817 0.01,1.06817 -1,1.00003 -0.99991,1.00003 z m 0,-19.09093 h 13.90909 l 1,-0.99995 1,-0.99998 v -1.18192 -1.18176 l 1,-1.00003 1.00001,-1.00003 h 4.36362 4.36364 l 1.00001,-0.99998 0.99999,-0.99995 v -7.54547 -7.54547 l -0.99999,-0.99996 -1.00001,-0.99997 h -0.85704 -0.85705 l -0.99968,0.38362 -0.99968,0.3836 -0.6626,2.46064 -0.6626,2.46072 -2.5068,0.67502 -2.50681,0.67493 -0.67501,2.50687 -0.67501,2.50687 -2.5068,0.67493 -2.50681,0.67502 -0.66989,2.4878 -0.66987,2.48776 -1.25854,0.39939 -1.25853,0.39941 -1.25854,-0.39941 -1.25853,-0.39939 -0.66475,-2.46878 -0.66475,-2.46863 -1.25854,-0.39945 -1.25853,-0.3995 -1.25854,0.3995 -1.25853,0.39945 -0.66475,2.46863 -0.66475,2.46878 -1.25854,0.39939 -1.25853,0.39941 -1.25854,-0.39941 -1.25853,-0.39939 -0.66987,-2.48776 -0.66989,-2.48779 -2.50681,-0.67503 -2.5068,-0.67493 -0.67501,-2.50687 -0.67501,-2.50687 -2.50683,-0.67493 -2.50676,-0.67502 -0.66261,-2.46072 -0.66261,-2.46063 -0.99972,-0.38361 -0.99965,-0.38362 h -0.85708 -0.85698 l -1.00003,0.99998 -1.00003,0.99995 v 7.54547 7.54547 l 1.00003,0.99995 1.00003,0.99998 h 4.36356 4.36369 l 1.00001,1.00003 0.99999,1.00003 v 1.18176 1.18192 l 1,0.99998 1,0.99995 z m -6.25,-12.77745 1.06818,0.0506 1,-0.99999 1,-0.99998 v -3.81457 -3.81457 l -0.63148,-1.17993 -0.63147,-1.1799 -2.21983,-0.73262 -2.21982,-0.73261 -0.66802,-2.48086 -0.66803,-2.48086 -2.48084,-0.66801 -2.48086,-0.66801 -0.74402,-2.2544 -0.74401,-2.25441 -1.56996,-0.59692 -1.57,-0.59687 h -0.23128 -0.23129 l -1.00002,1 -1.00003,0.99998 v 4.03887 4.03886 l 0.38362,0.99969 0.38363,0.99969 2.46075,0.66261 2.46068,0.66257 0.67501,2.5068 0.67501,2.50683 2.5068,0.67498 2.50681,0.67504 0.66696,2.47684 0.66694,2.47685 0.78419,0.31724 0.7842,0.31721 z m 12.28886,0.0506 h 0.85704 l 0.9997,-0.38361 0.99967,-0.38361 0.6626,-2.46072 0.6626,-2.46069 2.50681,-0.67503 2.5068,-0.67499 0.67501,-2.50683 0.67501,-2.50678 2.4607,-0.66259 2.46069,-0.66261 0.38363,-0.99968 0.3836,-0.9997 v -4.03885 -4.03886 l -0.99999,-0.99999 -1.00001,-1.00001 h -0.23129 -0.23131 l -1.56996,0.59688 -1.56996,0.59692 -0.74402,2.2544 -0.74401,2.25441 -2.48086,0.66802 -2.48084,0.668 -0.66803,2.48085 -0.66802,2.48087 -2.21982,0.7326 -2.21983,0.73262 -0.63147,1.17992 -0.63148,1.17991 v 3.81459 3.81455 l 1,1.00002 1,0.99998 z m -13.35301,-19.09087 h 0.23129 l 1.56996,-0.59692 1.56996,-0.59688 0.73806,-2.23634 0.73806,-2.23633 1.2334,-0.39148 1.23342,-0.39142 1.23342,0.39147 1.2334,0.39147 0.73806,2.23634 0.73806,2.23633 1.56996,0.59689 1.56996,0.59691 h 0.23129 0.23131 l 0.99999,-1 1.00001,-1 v -4.36364 -4.36364 l -1.00001,-1 -0.99999,-0.99999 h -7.54546 -7.54546 l -0.99999,0.99999 -1.00001,1 v 4.36364 4.36364 l 1.00001,1 0.99999,1 z"
       id="path720" /></g></svg>
